<svg width="96" height="16" viewBox="0 0 96 16" fill="none" xmlns="http://www.w3.org/2000/svg">
<path d="M1.232 1.848V13H6.592V11.816H2.688V1.848H1.232ZM8.13825 13H9.59425V4.232H8.13825V13ZM8.89025 2.808C9.41825 2.808 9.85025 2.376 9.85025 1.816C9.85025 1.256 9.41825 0.823999 8.89025 0.823999C8.33025 0.823999 7.89825 1.256 7.89825 1.816C7.89825 2.376 8.33025 2.808 8.89025 2.808ZM11.0358 4.232L14.4758 13H16.1718L19.6118 4.232H18.0598L15.3398 11.656L12.6038 4.232H11.0358ZM24.7725 5.32C26.2765 5.32 27.5565 6.264 27.5405 7.976H22.0045C22.1645 6.264 23.3485 5.32 24.7725 5.32ZM28.8685 10.296H27.3005C26.9805 11.24 26.1485 11.912 24.8365 11.912C23.3485 11.912 22.1005 10.936 21.9885 9.16H28.9965C29.0285 8.856 29.0445 8.6 29.0445 8.28C29.0445 5.88 27.3805 4.088 24.8365 4.088C22.2765 4.088 20.5005 5.832 20.5005 8.6C20.5005 11.384 22.3405 13.144 24.8365 13.144C27.0125 13.144 28.4205 11.896 28.8685 10.296ZM36.688 7.144V3.048H38.832C40.496 3.048 41.2 3.816 41.2 5.112C41.2 6.36 40.496 7.144 38.832 7.144H36.688ZM42.688 5.112C42.688 3.288 41.456 1.848 38.832 1.848H35.232V13H36.688V8.344H38.832C41.6 8.344 42.688 6.808 42.688 5.112ZM45.9536 8.232C45.9536 6.2 47.0096 5.576 48.4016 5.576H48.7856V4.072C47.3936 4.072 46.4496 4.68 45.9536 5.656V4.232H44.4976V13H45.9536V8.232ZM54.1944 5.32C55.6984 5.32 56.9784 6.264 56.9624 7.976H51.4264C51.5864 6.264 52.7704 5.32 54.1944 5.32ZM58.2904 10.296H56.7224C56.4024 11.24 55.5704 11.912 54.2584 11.912C52.7704 11.912 51.5224 10.936 51.4104 9.16H58.4184C58.4504 8.856 58.4664 8.6 58.4664 8.28C58.4664 5.88 56.8024 4.088 54.2584 4.088C51.6984 4.088 49.9224 5.832 49.9224 8.6C49.9224 11.384 51.7624 13.144 54.2584 13.144C56.4344 13.144 57.8424 11.896 58.2904 10.296ZM59.3483 4.232L62.7883 13H64.4843L67.9243 4.232H66.3723L63.6523 11.656L60.9163 4.232H59.3483ZM69.357 13H70.813V4.232H69.357V13ZM70.109 2.808C70.637 2.808 71.069 2.376 71.069 1.816C71.069 1.256 70.637 0.823999 70.109 0.823999C69.549 0.823999 69.117 1.256 69.117 1.816C69.117 2.376 69.549 2.808 70.109 2.808ZM77.0225 5.32C78.5265 5.32 79.8065 6.264 79.7905 7.976H74.2545C74.4145 6.264 75.5985 5.32 77.0225 5.32ZM81.1185 10.296H79.5505C79.2305 11.24 78.3985 11.912 77.0865 11.912C75.5985 11.912 74.3505 10.936 74.2385 9.16H81.2465C81.2785 8.856 81.2945 8.6 81.2945 8.28C81.2945 5.88 79.6305 4.088 77.0865 4.088C74.5265 4.088 72.7505 5.832 72.7505 8.6C72.7505 11.384 74.5905 13.144 77.0865 13.144C79.2625 13.144 80.6705 11.896 81.1185 10.296ZM84.9284 13H86.4324L88.5444 6.04L90.6564 13H92.1604L94.8964 4.232H93.4564L91.4724 11.608L89.3444 4.232H87.8564L85.6804 11.592L83.6644 4.232H82.1764L84.9284 13Z" fill="black"/>
<path d="M0 14.6H95.1044V15.4H0V14.6Z" fill="black"/>
</svg>
