<svg width="86" height="16" viewBox="0 0 86 16" fill="none" xmlns="http://www.w3.org/2000/svg">
<path d="M5.408 11.464L1.904 1.848H0.352L4.56 13H6.24L10.448 1.848H8.912L5.408 11.464ZM12.0445 13H13.5005V4.232H12.0445V13ZM12.7965 2.808C13.3245 2.808 13.7565 2.376 13.7565 1.816C13.7565 1.256 13.3245 0.823999 12.7965 0.823999C12.2365 0.823999 11.8045 1.256 11.8045 1.816C11.8045 2.376 12.2365 2.808 12.7965 2.808ZM19.71 5.32C21.214 5.32 22.494 6.264 22.478 7.976H16.942C17.102 6.264 18.286 5.32 19.71 5.32ZM23.806 10.296H22.238C21.918 11.24 21.086 11.912 19.774 11.912C18.286 11.912 17.038 10.936 16.926 9.16H23.934C23.966 8.856 23.982 8.6 23.982 8.28C23.982 5.88 22.318 4.088 19.774 4.088C17.214 4.088 15.438 5.832 15.438 8.6C15.438 11.384 17.278 13.144 19.774 13.144C21.95 13.144 23.358 11.896 23.806 10.296ZM27.6159 13H29.1199L31.2319 6.04L33.3439 13H34.8479L37.5839 4.232H36.1439L34.1599 11.608L32.0319 4.232H30.5439L28.3679 11.592L26.3519 4.232H24.8639L27.6159 13ZM42.7505 7.416C42.7505 10.76 45.1985 13.096 48.3185 13.096C50.7345 13.096 52.6545 11.896 53.4865 9.752H51.7425C51.1345 11.08 49.9505 11.832 48.3185 11.832C45.9825 11.832 44.2385 10.136 44.2385 7.416C44.2385 4.68 45.9825 2.984 48.3185 2.984C49.9505 2.984 51.1345 3.736 51.7425 5.08H53.4865C52.6545 2.92 50.7345 1.704 48.3185 1.704C45.1985 1.704 42.7505 4.072 42.7505 7.416ZM63.9739 8.6C63.9739 5.832 62.0379 4.088 59.5419 4.088C57.0619 4.088 55.1099 5.832 55.1099 8.6C55.1099 11.384 56.9979 13.144 59.4779 13.144C61.9739 13.144 63.9739 11.384 63.9739 8.6ZM56.5979 8.6C56.5979 6.392 57.9899 5.352 59.5259 5.352C61.0299 5.352 62.4859 6.392 62.4859 8.6C62.4859 10.824 60.9979 11.864 59.4779 11.864C57.9579 11.864 56.5979 10.824 56.5979 8.6ZM65.3443 8.584C65.3443 11.304 67.1523 13.144 69.5043 13.144C71.1043 13.144 72.2403 12.328 72.7683 11.352V13H74.2403V1.16H72.7683V5.8C72.1603 4.792 70.8963 4.088 69.5203 4.088C67.1523 4.088 65.3443 5.848 65.3443 8.584ZM72.7683 8.6C72.7683 10.664 71.3923 11.864 69.7923 11.864C68.1923 11.864 66.8323 10.648 66.8323 8.584C66.8323 6.52 68.1923 5.352 69.7923 5.352C71.3923 5.352 72.7683 6.568 72.7683 8.6ZM80.4288 5.32C81.9328 5.32 83.2128 6.264 83.1968 7.976H77.6608C77.8207 6.264 79.0048 5.32 80.4288 5.32ZM84.5248 10.296H82.9568C82.6368 11.24 81.8048 11.912 80.4928 11.912C79.0048 11.912 77.7568 10.936 77.6448 9.16H84.6528C84.6848 8.856 84.7008 8.6 84.7008 8.28C84.7008 5.88 83.0368 4.088 80.4928 4.088C77.9328 4.088 76.1568 5.832 76.1568 8.6C76.1568 11.384 77.9968 13.144 80.4928 13.144C82.6688 13.144 84.0768 11.896 84.5248 10.296Z" fill="black"/>
<path d="M0 14.6H85.3887V15.4H0V14.6Z" fill="black"/>
</svg>
